<svg width="84" height="54" viewBox="0 0 84 54" fill="none" xmlns="http://www.w3.org/2000/svg">
<path d="M0.557861 19.9478H3.79974V31.7472H9.79786V34.7397H0.557861V19.9478ZM11.2285 24.7187H14.3391V34.7331H11.2285V24.7187ZM12.7838 19.7378C13.1407 19.7378 13.4896 19.8437 13.7864 20.042C14.0832 20.2403 14.3145 20.5221 14.4511 20.8519C14.5877 21.1816 14.6234 21.5445 14.5538 21.8946C14.4842 22.2447 14.3123 22.5662 14.0599 22.8186C13.8075 23.071 13.486 23.2429 13.1359 23.3125C12.7858 23.3821 12.4229 23.3464 12.0932 23.2098C11.7634 23.0732 11.4816 22.8419 11.2833 22.5451C11.085 22.2483 10.9791 21.8994 10.9791 21.5425C10.9791 21.0639 11.1692 20.6048 11.5077 20.2664C11.8461 19.9279 12.3052 19.7378 12.7838 19.7378ZM27.3591 19.9478H30.4697V28.7875L34.0004 24.7056H37.8132L33.7313 29.3453L37.7279 34.7397H33.8166L30.5091 29.785H30.4697V34.7397H27.3591V19.9478ZM16.065 24.7187H19.0313V26.0903H19.0707C19.3699 25.5794 19.8018 25.159 20.3205 24.8737C20.8393 24.5883 21.4255 24.4486 22.0172 24.4694C25.1738 24.4694 25.7513 26.5431 25.7513 29.2403V34.7397H22.6669V29.8637C22.6669 28.7022 22.6669 27.2387 21.046 27.2387C19.425 27.2387 19.1757 28.5053 19.1757 29.8113V34.7659H16.065V24.7187Z" fill="white"/>
<path d="M44.3691 28.5578C44.3754 28.3053 44.3303 28.0542 44.2366 27.8196C44.1428 27.5851 44.0024 27.372 43.8238 27.1934C43.6452 27.0148 43.4321 26.8744 43.1976 26.7806C42.963 26.6869 42.7119 26.6418 42.4594 26.6481C41.9155 26.6137 41.38 26.7948 40.9686 27.1522C40.5572 27.5095 40.303 28.0145 40.261 28.5578H44.3691ZM46.9941 33.0006C46.4749 33.6228 45.8242 34.1221 45.0889 34.4625C44.3536 34.8029 43.5519 34.9761 42.7416 34.9694C39.631 34.9694 37.1372 32.8956 37.1372 29.6734C37.1372 26.4513 39.631 24.3841 42.7416 24.3841C45.6488 24.3841 47.4731 26.4578 47.4731 29.6734V30.6512H40.2544C40.3401 31.2075 40.6249 31.7138 41.0558 32.0759C41.4867 32.438 42.0345 32.6313 42.5972 32.62C43.0405 32.6194 43.4764 32.5065 43.8642 32.2919C44.2521 32.0773 44.5793 31.768 44.8153 31.3928L46.9941 33.0006ZM53.9635 27.1337C53.4555 27.1181 52.9544 27.2544 52.5244 27.5252C52.0943 27.796 51.7549 28.189 51.5496 28.6538C51.3442 29.1187 51.2823 29.6343 51.3717 30.1346C51.4612 30.6348 51.6979 31.097 52.0515 31.462C52.4052 31.8269 52.8598 32.078 53.357 32.183C53.8542 32.2881 54.3715 32.2423 54.8426 32.0516C55.3136 31.861 55.7171 31.534 56.0012 31.1127C56.2854 30.6913 56.4373 30.1948 56.4375 29.6866C56.4654 29.3493 56.4204 29.0101 56.3058 28.6917C56.1912 28.3733 56.0095 28.0833 55.773 27.8413C55.5366 27.5992 55.2509 27.4108 54.9353 27.2887C54.6197 27.1666 54.2816 27.1138 53.9438 27.1337M59.325 34.7331H56.4375V33.4206C56.0768 33.9017 55.6106 34.2939 55.0749 34.5669C54.5391 34.8399 53.9479 34.9866 53.3466 34.9956C50.3541 34.9956 48.3853 32.8366 48.3853 29.785C48.3853 26.9828 50.131 24.4103 52.9791 24.4103C53.5779 24.3577 54.1806 24.4494 54.7367 24.6778C55.2928 24.9062 55.786 25.2645 56.175 25.7228H56.2144V19.9478H59.325V34.7331ZM81.7688 16.8437H63.8925C63.6895 16.8411 63.488 16.879 63.2998 16.9551C63.1116 17.0311 62.9404 17.1439 62.7962 17.2869C62.6521 17.4298 62.5378 17.6001 62.4601 17.7876C62.3824 17.9752 62.3429 18.1764 62.3438 18.3794V36.3278C62.3455 36.5292 62.3869 36.7282 62.4658 36.9135C62.5446 37.0988 62.6593 37.2667 62.8032 37.4075C62.9471 37.5484 63.1174 37.6594 63.3044 37.7343C63.4913 37.8092 63.6912 37.8463 63.8925 37.8438H81.7688C81.9721 37.849 82.1744 37.8138 82.364 37.7402C82.5536 37.6666 82.7266 37.5561 82.8732 37.415C83.0197 37.274 83.1368 37.1053 83.2175 36.9186C83.2983 36.732 83.3412 36.5312 83.3438 36.3278V18.3794C83.3438 18.1744 83.3029 17.9714 83.2232 17.7825C83.1436 17.5936 83.027 17.4225 82.8802 17.2794C82.7334 17.1362 82.5594 17.024 82.3685 16.9491C82.1777 16.8743 81.9737 16.8385 81.7688 16.8437ZM68.565 34.7397H65.4544V24.7187H68.565V34.7397ZM67.0097 23.3603C66.6528 23.3603 66.3039 23.2545 66.0071 23.0562C65.7103 22.8579 65.479 22.576 65.3424 22.2462C65.2058 21.9165 65.1701 21.5536 65.2397 21.2035C65.3093 20.8535 65.4812 20.5319 65.7336 20.2795C65.986 20.0271 66.3076 19.8552 66.6576 19.7856C67.0077 19.716 67.3706 19.7517 67.7003 19.8883C68.0301 20.0249 68.3119 20.2562 68.5102 20.553C68.7085 20.8498 68.8144 21.1987 68.8144 21.5556C68.8144 22.0343 68.6243 22.4933 68.2858 22.8317C67.9474 23.1702 67.4883 23.3603 67.0097 23.3603ZM80.22 34.7397H77.1094V29.8703C77.1094 28.7087 77.1094 27.2453 75.495 27.2453C73.8806 27.2453 73.6247 28.5119 73.6247 29.8178V34.7725H70.5141V24.7187H73.5V26.0969H73.5394C73.8395 25.5872 74.2717 25.1681 74.7904 24.8839C75.3091 24.5998 75.8949 24.4611 76.486 24.4825C79.636 24.4825 80.22 26.5563 80.22 29.2534V34.7397Z" fill="white"/>
</svg>
