<svg width="25" height="25" viewBox="0 0 25 25" fill="none" xmlns="http://www.w3.org/2000/svg">
<path d="M6.44397 4.74142C6.44397 4.11627 6.69231 3.51672 7.13436 3.07467C7.57641 2.63262 8.17596 2.38428 8.80111 2.38428H16.0868C16.712 2.38428 17.3115 2.63262 17.7536 3.07467C18.1956 3.51672 18.444 4.11627 18.444 4.74142V20.5986C18.444 21.2237 18.1956 21.8233 17.7536 22.2653C17.3115 22.7074 16.712 22.9557 16.0868 22.9557H8.80111C8.17596 22.9557 7.57641 22.7074 7.13436 22.2653C6.69231 21.8233 6.44397 21.2237 6.44397 20.5986V4.74142ZM10.944 18.67C10.7735 18.67 10.61 18.7377 10.4894 18.8583C10.3688 18.9788 10.3011 19.1424 10.3011 19.3128C10.3011 19.4833 10.3688 19.6469 10.4894 19.7674C10.61 19.888 10.7735 19.9557 10.944 19.9557H13.944C14.1145 19.9557 14.278 19.888 14.3985 19.7674C14.5191 19.6469 14.5868 19.4833 14.5868 19.3128C14.5868 19.1424 14.5191 18.9788 14.3985 18.8583C14.278 18.7377 14.1145 18.67 13.944 18.67H10.944Z" fill="white"/>
</svg>
