<svg width="319" height="80" viewBox="0 0 319 80" fill="none" xmlns="http://www.w3.org/2000/svg">
<path d="M92.5977 0.234054L17.4636 0.279419L17.4759 0.695472C20.2721 4.85439 27.7806 15.1681 35.4455 23.1519C42.8547 31.0525 54.5 29.936 56.7103 28.5478C60.6882 25.0782 69.0539 17.7228 70.6932 16.0576C76.4675 11.4774 72.7545 14.3921 76.8896 11.4772C82.3032 8.97753 86.0064 10.5009 89.1428 11.8858L88.733 12.3021C87.5158 13.9671 85.479 16.4647 85.0815 17.2971C85.3763 27.2823 82.942 30.6123 81.7617 33.5254C72.3482 43.5165 66.7872 41.0235 54.5708 41.863C44.7977 42.5346 44.2886 51.0226 45.2556 55.1826L51.8776 79.3101C64.3087 66.6821 92.1986 38.179 104.309 25.1906C110.303 10.8745 98.9988 2.58786 92.5977 0.234054Z" fill="white"/>
<path d="M50.1777 36.0406C18.793 36.7253 5.16081 12.4911 2.26782 0.288376L1.84603 0.288631L1.47276 1.9531C-3.04369 34.8246 10.2623 42.3056 18.778 44.7968C27.2938 47.2881 41.522 44.3671 50.1777 36.0406Z" fill="white"/>
<path d="M104.636 51.6714L115.76 26.4714H122.78L133.94 51.6714H126.524L117.812 29.9634H120.62L111.908 51.6714H104.636ZM110.72 46.7754L112.556 41.5194H124.868L126.704 46.7754H110.72ZM140.018 51.6714L131.99 32.1594H139.01L145.418 48.4674H141.89L148.622 32.1594H155.138L147.074 51.6714H140.018ZM166.351 51.9954C164.191 51.9954 162.259 51.5634 160.555 50.6994C158.875 49.8354 157.555 48.6474 156.595 47.1354C155.635 45.5994 155.155 43.8474 155.155 41.8794C155.155 39.9114 155.635 38.1714 156.595 36.6594C157.555 35.1474 158.875 33.9714 160.555 33.1314C162.259 32.2674 164.191 31.8354 166.351 31.8354C168.559 31.8354 170.467 32.3034 172.075 33.2394C173.683 34.1754 174.823 35.4954 175.495 37.1994L170.203 39.8994C169.747 38.9874 169.183 38.3274 168.511 37.9194C167.839 37.4874 167.107 37.2714 166.315 37.2714C165.523 37.2714 164.803 37.4514 164.155 37.8114C163.507 38.1714 162.991 38.6994 162.607 39.3954C162.247 40.0674 162.067 40.8954 162.067 41.8794C162.067 42.8874 162.247 43.7394 162.607 44.4354C162.991 45.1314 163.507 45.6594 164.155 46.0194C164.803 46.3794 165.523 46.5594 166.315 46.5594C167.107 46.5594 167.839 46.3554 168.511 45.9474C169.183 45.5154 169.747 44.8434 170.203 43.9314L175.495 46.6314C174.823 48.3354 173.683 49.6554 172.075 50.5914C170.467 51.5274 168.559 51.9954 166.351 51.9954ZM187.651 51.9954C185.515 51.9954 183.619 51.5634 181.963 50.6994C180.307 49.8354 178.999 48.6474 178.039 47.1354C177.103 45.5994 176.635 43.8474 176.635 41.8794C176.635 39.9114 177.103 38.1714 178.039 36.6594C178.999 35.1474 180.307 33.9714 181.963 33.1314C183.619 32.2674 185.515 31.8354 187.651 31.8354C189.787 31.8354 191.683 32.2674 193.339 33.1314C195.019 33.9714 196.327 35.1474 197.263 36.6594C198.199 38.1714 198.667 39.9114 198.667 41.8794C198.667 43.8474 198.199 45.5994 197.263 47.1354C196.327 48.6474 195.019 49.8354 193.339 50.6994C191.683 51.5634 189.787 51.9954 187.651 51.9954ZM187.651 46.5594C188.443 46.5594 189.139 46.3794 189.739 46.0194C190.363 45.6594 190.855 45.1314 191.215 44.4354C191.575 43.7154 191.755 42.8634 191.755 41.8794C191.755 40.8954 191.575 40.0674 191.215 39.3954C190.855 38.6994 190.363 38.1714 189.739 37.8114C189.139 37.4514 188.443 37.2714 187.651 37.2714C186.883 37.2714 186.187 37.4514 185.563 37.8114C184.963 38.1714 184.471 38.6994 184.087 39.3954C183.727 40.0674 183.547 40.8954 183.547 41.8794C183.547 42.8634 183.727 43.7154 184.087 44.4354C184.471 45.1314 184.963 45.6594 185.563 46.0194C186.187 46.3794 186.883 46.5594 187.651 46.5594ZM214.544 31.8354C216.056 31.8354 217.424 32.1474 218.648 32.7714C219.872 33.3714 220.832 34.3074 221.528 35.5794C222.248 36.8514 222.608 38.4954 222.608 40.5114V51.6714H215.768V41.6274C215.768 40.2354 215.48 39.2274 214.904 38.6034C214.352 37.9554 213.572 37.6314 212.564 37.6314C211.844 37.6314 211.184 37.7994 210.584 38.1354C209.984 38.4474 209.516 38.9394 209.18 39.6114C208.844 40.2834 208.676 41.1594 208.676 42.2394V51.6714H201.836V32.1594H208.352V37.7034L207.092 36.0834C207.836 34.6674 208.856 33.6114 210.152 32.9154C211.448 32.1954 212.912 31.8354 214.544 31.8354ZM234.2 51.6714L245.72 26.4714H248.348L259.868 51.6714H257.06L246.476 28.0194H247.556L236.972 51.6714H234.2ZM238.736 44.9394L239.528 42.7794H254.18L254.972 44.9394H238.736ZM271.349 51.8514C269.381 51.8514 267.653 51.4434 266.165 50.6274C264.677 49.7874 263.513 48.6474 262.673 47.2074C261.833 45.7434 261.413 44.0754 261.413 42.2034C261.413 40.3314 261.809 38.6754 262.601 37.2354C263.417 35.7954 264.521 34.6674 265.913 33.8514C267.329 33.0114 268.913 32.5914 270.665 32.5914C272.441 32.5914 274.013 32.9994 275.381 33.8154C276.773 34.6074 277.865 35.7354 278.657 37.1994C279.449 38.6394 279.845 40.3074 279.845 42.2034C279.845 42.3234 279.833 42.4554 279.809 42.5994C279.809 42.7194 279.809 42.8514 279.809 42.9954H263.357V41.0874H278.441L277.433 41.8434C277.433 40.4754 277.133 39.2634 276.533 38.2074C275.957 37.1274 275.165 36.2874 274.157 35.6874C273.149 35.0874 271.985 34.7874 270.665 34.7874C269.369 34.7874 268.205 35.0874 267.173 35.6874C266.141 36.2874 265.337 37.1274 264.761 38.2074C264.185 39.2874 263.897 40.5234 263.897 41.9154V42.3114C263.897 43.7514 264.209 45.0234 264.833 46.1274C265.481 47.2074 266.369 48.0594 267.497 48.6834C268.649 49.2834 269.957 49.5834 271.421 49.5834C272.573 49.5834 273.641 49.3794 274.625 48.9714C275.633 48.5634 276.497 47.9394 277.217 47.0994L278.657 48.7554C277.817 49.7634 276.761 50.5314 275.489 51.0594C274.241 51.5874 272.861 51.8514 271.349 51.8514ZM285.048 51.6714V32.7714H287.496V37.9194L287.244 37.0194C287.772 35.5794 288.66 34.4874 289.908 33.7434C291.156 32.9754 292.704 32.5914 294.552 32.5914V35.0754C294.456 35.0754 294.36 35.0754 294.264 35.0754C294.168 35.0514 294.072 35.0394 293.976 35.0394C291.984 35.0394 290.424 35.6514 289.296 36.8754C288.168 38.0754 287.604 39.7914 287.604 42.0234V51.6714H285.048ZM306.744 51.8514C304.92 51.8514 303.276 51.4434 301.812 50.6274C300.372 49.7874 299.232 48.6474 298.392 47.2074C297.552 45.7434 297.132 44.0754 297.132 42.2034C297.132 40.3074 297.552 38.6394 298.392 37.1994C299.232 35.7594 300.372 34.6314 301.812 33.8154C303.252 32.9994 304.896 32.5914 306.744 32.5914C308.616 32.5914 310.272 32.9994 311.712 33.8154C313.176 34.6314 314.316 35.7594 315.132 37.1994C315.972 38.6394 316.392 40.3074 316.392 42.2034C316.392 44.0754 315.972 45.7434 315.132 47.2074C314.316 48.6474 313.176 49.7874 311.712 50.6274C310.248 51.4434 308.592 51.8514 306.744 51.8514ZM306.744 49.5834C308.112 49.5834 309.324 49.2834 310.38 48.6834C311.436 48.0594 312.264 47.1954 312.864 46.0914C313.488 44.9634 313.8 43.6674 313.8 42.2034C313.8 40.7154 313.488 39.4194 312.864 38.3154C312.264 37.2114 311.436 36.3594 310.38 35.7594C309.324 35.1354 308.124 34.8234 306.78 34.8234C305.436 34.8234 304.236 35.1354 303.18 35.7594C302.124 36.3594 301.284 37.2114 300.66 38.3154C300.036 39.4194 299.724 40.7154 299.724 42.2034C299.724 43.6674 300.036 44.9634 300.66 46.0914C301.284 47.1954 302.124 48.0594 303.18 48.6834C304.236 49.2834 305.424 49.5834 306.744 49.5834Z" fill="white"/>
</svg>
