<svg width="1512" height="834" viewBox="0 0 1512 834" fill="none" xmlns="http://www.w3.org/2000/svg">
<g clip-path="url(#clip0_166_2)">
<path d="M-975.108 15.9797L-955.418 23.4333C-935.556 31.4494 -895.659 45.5126 -855.934 98.5312C-817.246 150.987 -778.212 240.992 -738.487 263.494C-698.762 285.995 -659.038 240.992 -619.313 240.992C-580.279 240.992 -541.591 285.995 -501.866 248.446C-461.969 211.459 -422.417 90.5152 -382.693 90.9371C-343.486 90.5152 -303.243 211.459 -265.246 248.446C-225.003 285.995 -185.796 240.992 -146.072 233.539C-106.52 225.523 -66.6226 256.462 -26.898 240.992C11.7903 225.523 50.8241 166.457 90.5488 150.987C130.273 135.518 169.998 166.457 209.723 203.443C248.756 240.992 287.445 285.995 327.169 263.494C367.067 240.992 406.619 150.987 446.343 98.5312C485.55 45.5126 525.793 31.4494 563.79 68.4358C604.033 105.985 643.24 195.99 682.964 211.038C722.516 225.523 762.413 166.457 802.138 150.987C840.826 135.518 879.86 166.457 919.585 135.94C959.309 105.985 999.034 15.9797 1038.76 45.9345C1077.79 76.4519 1116.48 225.523 1156.21 233.539C1196.1 240.992 1235.65 105.985 1275.38 76.03C1314.59 45.5126 1354.83 121.454 1392.83 150.987C1433.07 180.52 1472.28 166.457 1493 158.441L1512 150.987V376H1492.31C1472.45 376 1432.55 376 1392.83 376C1354.14 376 1315.1 376 1275.38 376C1235.65 376 1195.93 376 1156.21 376C1117.17 376 1078.48 376 1038.76 376C998.861 376 959.309 376 919.585 376C880.378 376 840.135 376 802.138 376C761.895 376 722.689 376 682.964 376C643.412 376 603.515 376 563.79 376C525.102 376 486.068 376 446.343 376C406.619 376 366.894 376 327.169 376C288.136 376 249.447 376 209.723 376C169.825 376 130.273 376 90.5488 376C51.3423 376 11.0995 376 -26.898 376C-67.1407 376 -106.347 376 -146.072 376C-185.624 376 -225.521 376 -265.246 376C-303.934 376 -342.968 376 -382.693 376C-422.417 376 -462.142 376 -501.866 376C-540.9 376 -579.589 376 -619.313 376C-659.211 376 -698.762 376 -738.487 376C-777.694 376 -817.936 376 -855.934 376C-896.177 376 -935.383 376 -956.109 376H-975.108V15.9797Z" fill="#F2FAFF"/>
</g>
<rect y="376" width="1512" height="457.695" fill="#F2FAFF"/>
<defs>
<clipPath id="clip0_166_2">
<rect width="1512" height="376" fill="white"/>
</clipPath>
</defs>
</svg>
